<?xml version="1.0" encoding="utf-8"?>
<!-- Generator: Adobe Illustrator 25.4.1, SVG Export Plug-In . SVG Version: 6.00 Build 0)  -->
<svg version="1.1" id="图层_1" xmlns="http://www.w3.org/2000/svg" xmlns:xlink="http://www.w3.org/1999/xlink" x="0px" y="0px"
	 viewBox="0 0 651.97 164.41" style="enable-background:new 0 0 651.97 164.41;" xml:space="preserve">
<style type="text/css">
	.st0{fill:#131309;}
</style>
<g>
	<g>
		<path class="st0" d="M15.19,58.32c6.05,4.04,12.29,5.91,17.41,5.91c9.61,0,12.96-5.83,12.96-17.34V24.63
			c0-5.28-1.14-8.42-4.47-10.24h20.23c-3.44,1.92-4.49,5.09-4.49,10.24v22.45c0,17.32-6.31,25.47-22.91,25.47
			c-7.17,0-12.14-1.82-15.2-1.82c-1.06,0-2.22,0.38-3.54,1.05V58.32z"/>
		<path class="st0" d="M133.29,50.84c0-13.41-8.7-21.31-23.96-21.31c-14.89,0-23.93,8.82-23.93,21.83
			c0,12.74,8.64,20.87,23.93,20.87C124.19,72.22,133.29,63.13,133.29,50.84 M108.78,64.69c-8.1,0-12.82-4.81-12.82-13.15
			c0-9.33,4.99-14.57,13.91-14.57c8.06,0,12.8,4.78,12.8,13.3C122.66,59.4,117.61,64.69,108.78,64.69"/>
		<path class="st0" d="M202.69,61c0,5.12,1.2,8.32,4.52,10.19h-18.99c3.31-1.87,4.45-5.07,4.45-10.19V24.63
			c0-5.28-1.14-8.42-4.45-10.24h23.39c-0.36,0.67-0.6,1.26-0.6,1.82c0,0.46,0.24,1.17,0.6,2.08l17.29,42.61l17.67-42.71
			c0.26-0.72,0.46-1.39,0.46-1.8c0-0.57-0.28-1.24-0.69-2h23.89c-3.35,1.82-4.45,4.97-4.45,10.24V61c0,4.67,0.63,7.51,4.07,10.19
			h-19.08c3.54-2.77,4.05-5.64,4.05-10.19V22.81l-19.56,44.74c-0.29,0.79-0.56,1.39-0.56,1.92c0,0.41,0.17,0.96,0.56,1.72h-13.25
			c0.28-0.76,0.46-1.31,0.46-1.48c0-0.6-0.31-1.29-0.64-2.2l-19.16-45.67V61z"/>
		<path class="st0" d="M343.71,63.9l-13.42-30.11c-0.43-0.86-0.62-1.48-0.62-1.82c0-0.38,0.28-0.86,0.57-1.5h-16.97
			c0.34,0.7,0.48,1.12,0.48,1.43c0,0.41-0.19,1.1-0.57,1.89L298.66,63.9c-1.34,2.83-2.7,5.26-4.81,7.29h15.73
			c-1-0.9-1.56-2.1-1.56-3.77c0-1.03,0.2-2.06,0.46-2.66l0.91-1.98h23.49l1.17,2.63c0.21,0.52,0.47,1.48,0.47,2.49
			c0,1.26-0.47,2.2-1.48,3.28h15.5C346.61,69.23,345.02,66.74,343.71,63.9 M312.74,55.38l8.22-19.06l8.87,19.06H312.74z"/>
		<path class="st0" d="M373.14,30.47h17.05c-2.37,1.02-3.63,3.4-3.63,6.96v26.76h11.59c6.51,0,11.57-1.26,15.97-4.83
			c-2.27,5.79-3.9,9.04-3.9,10.06c0,0.53,0.31,1.12,0.83,1.77h-37.9c2.39-1.08,3.4-3.3,3.4-7V37.43
			C376.54,33.74,375.53,31.5,373.14,30.47"/>
		<path class="st0" d="M484.59,50.84c0-13.41-8.71-21.31-24.03-21.31c-14.87,0-23.89,8.82-23.89,21.83
			c0,12.74,8.63,20.87,23.89,20.87C475.43,72.22,484.59,63.13,484.59,50.84 M460.06,64.69c-8.11,0-12.84-4.81-12.84-13.15
			c0-9.33,5.02-14.57,13.91-14.57c8.11,0,12.82,4.78,12.82,13.3C473.95,59.4,468.86,64.69,460.06,64.69"/>
		<path class="st0" d="M525.17,64.09c0.07,3.8,0.82,5.86,3.45,7.1h-16.09c2.49-1.08,3.44-3.3,3.44-7.1V37.55
			c0-3.77-0.94-6.05-3.44-7.08h19.96c-0.28,0.48-0.43,0.79-0.43,1.01c0,0.26,0.22,0.83,0.56,1.52l15.9,30.73l-0.14-26.18
			c0-3.77-1.17-6.07-3.57-7.08h15.69c-3.23,1.58-3.28,3.87-3.28,6.96v0.31v29.99c0,1.43,0.12,2.51,0.94,3.45h-16.35
			c0.36-0.52,0.45-0.94,0.45-1.24c0-0.24-0.2-0.64-0.53-1.34l-17.27-31.68L525.17,64.09z"/>
		<path class="st0" d="M595.81,64.19V37.43c0-3.69-1.03-5.93-3.45-6.96h42.76c-0.48,0.57-0.67,1.12-0.67,1.6
			c0,0.86,1.06,3.64,2.52,8.85c-4.61-2.8-9.38-3.49-14.93-3.49H605.8v9.45h17.92c2.44,0,4.14-0.5,5.47-1.03l-3.4,5.74
			c-0.9,1.53-2.39,2.34-4.21,2.34H605.8v10.26h17.12c6.81,0,12.2-1.68,15.9-4.83c-2.27,5.79-3.83,9.04-3.83,10.06
			c0,0.53,0.26,1.12,0.74,1.77h-43.36C594.78,70.18,595.81,67.91,595.81,64.19"/>
		<path class="st0" d="M206.21,123.56h9.95c-1.6,0.82-2.27,2.41-2.27,4.9v18.99h8.63c4.76,0,8.37-0.91,10.95-2.8
			c-0.91,2.53-1.84,4.09-1.84,5.11c0,0.29,0.03,0.86,0.2,1.6h-25.63c1.58-0.9,2.18-2.37,2.18-4.91v-17.98
			C208.4,125.95,207.74,124.39,206.21,123.56"/>
		<path class="st0" d="M251.05,140.82c0,6.76,4.54,11.07,12.07,11.07c7.94,0,12.67-4.63,12.67-11.29c0-6.84-4.59-11.07-12.12-11.07
			C255.71,129.52,251.05,134.1,251.05,140.82 M263.69,132.74c4.79,0,7.51,2.83,7.51,7.82c0,5.02-3.01,8.1-8.11,8.1
			c-4.73,0-7.6-2.91-7.6-7.74C255.49,135.8,258.58,132.74,263.69,132.74"/>
		<path class="st0" d="M299.49,133l11.12,17.1c0.19,0.31,0.29,0.52,0.29,0.62c0,0.16-0.08,0.38-0.2,0.64h6.93
			c-0.41-0.67-0.48-1.24-0.48-1.98v-15.42v-0.22c0-1.62,0.03-2.79,1.56-3.69h-7.03c1.2,0.6,1.68,1.84,1.68,3.81l0.04,14.01
			l-10.52-16.71c-0.19-0.26-0.26-0.45-0.26-0.57c0-0.17,0.05-0.34,0.14-0.55h-8.52c1.29,0.72,1.65,1.89,1.65,3.81v13.61
			c0,1.99-0.36,3.18-1.65,3.88h7.22c-1.38-0.79-1.65-1.91-1.7-3.88L299.49,133z"/>
		<path class="st0" d="M348.13,130.04h-11.19c1.28,0.72,1.64,1.89,1.64,3.81v13.61c0,2-0.36,3.18-1.64,3.89h11.33
			c8.27,0,12.96-4.04,12.96-10.95c0-3.45-1.46-6.45-4.02-8.28C355.04,130.5,352.04,130.04,348.13,130.04 M342.84,148.33v-15.25h4.25
			c6.5,0,9.71,1.74,9.71,7.48c0,5.59-2.94,7.77-9.3,7.77H342.84z"/>
		<path class="st0" d="M380.09,140.82c0,6.76,4.53,11.07,12.12,11.07c7.94,0,12.61-4.63,12.61-11.29c0-6.84-4.55-11.07-12.1-11.07
			C384.78,129.52,380.09,134.1,380.09,140.82 M392.77,132.74c4.75,0,7.49,2.83,7.49,7.82c0,5.02-2.99,8.1-8.09,8.1
			c-4.75,0-7.62-2.91-7.62-7.74C384.55,135.8,387.63,132.74,392.77,132.74"/>
		<path class="st0" d="M428.85,147.47c0.04,1.98,0.33,3.09,1.7,3.88h-7.29c1.32-0.7,1.68-1.89,1.68-3.88v-13.61
			c0-1.92-0.36-3.09-1.68-3.81h8.58c-0.08,0.21-0.19,0.38-0.19,0.55c0,0.12,0.14,0.31,0.29,0.57l10.52,16.71l-0.05-14.01
			c0-1.98-0.45-3.21-1.67-3.81h7.06c-1.58,0.91-1.6,2.08-1.6,3.69v0.22v15.42c0,0.74,0.08,1.31,0.48,1.98h-6.91
			c0.14-0.26,0.22-0.48,0.22-0.64c0-0.1-0.14-0.31-0.29-0.62L428.59,133L428.85,147.47z"/>
	</g>
</g>
</svg>
